<svg width="52" height="56" viewBox="0 0 52 56" fill="none" xmlns="http://www.w3.org/2000/svg" xmlns:xlink="http://www.w3.org/1999/xlink">
<path d="M10.5,25.5C10.5,27.157 11.843,28.5 13.5,28.5C15.157,28.5 16.5,27.157 16.5,25.5L10.5,25.5ZM13.5,15.5L10.5,15.5L13.5,15.5ZM26,3L26,0L26,3ZM35.5,25.5C35.5,27.157 36.843,28.5 38.5,28.5C40.157,28.5 41.5,27.157 41.5,25.5L35.5,25.5ZM8.5,28.5L43.5,28.5L43.5,22.5L8.5,22.5L8.5,28.5ZM43.5,28.5C44.605,28.5 45.5,29.395 45.5,30.5L51.5,30.5C51.5,26.082 47.918,22.5 43.5,22.5L43.5,28.5ZM45.5,30.5L45.5,48L51.5,48L51.5,30.5L45.5,30.5ZM45.5,48C45.5,49.105 44.605,50 43.5,50L43.5,56C47.918,56 51.5,52.418 51.5,48L45.5,48ZM43.5,50L8.5,50L8.5,56L43.5,56L43.5,50ZM8.5,50C7.395,50 6.5,49.105 6.5,48L0.5,48C0.5,52.418 4.082,56 8.5,56L8.5,50ZM6.5,48L6.5,30.5L0.5,30.5L0.5,48L6.5,48ZM6.5,30.5C6.5,29.395 7.395,28.5 8.5,28.5L8.5,22.5C4.082,22.5 0.5,26.082 0.5,30.5L6.5,30.5ZM16.5,25.5L16.5,15.5L10.5,15.5L10.5,25.5L16.5,25.5ZM16.5,15.5C16.5,12.98 17.501,10.564 19.282,8.782L15.04,4.54C12.133,7.447 10.5,11.389 10.5,15.5L16.5,15.5ZM19.282,8.782C21.064,7.001 23.48,6 26,6L26,0C21.889,0 17.947,1.633 15.04,4.54L19.282,8.782ZM26,6C28.52,6 30.936,7.001 32.718,8.782L36.96,4.54C34.053,1.633 30.111,0 26,0L26,6ZM32.718,8.782C34.499,10.564 35.5,12.98 35.5,15.5L41.5,15.5C41.5,11.389 39.867,7.447 36.96,4.54L32.718,8.782ZM35.5,15.5L35.5,25.5L41.5,25.5L41.5,15.5L35.5,15.5Z" fill="#7E7E7E"/>
</svg>
