<svg width="28" height="40" viewBox="0 0 28 40" fill="none" xmlns="http://www.w3.org/2000/svg" xmlns:xlink="http://www.w3.org/1999/xlink">
<path d="M13.336,40C12.869,40 12.469,39.867 12.136,39.6C11.803,39.333 11.553,38.983 11.386,38.55C10.753,36.683 9.953,34.933 8.986,33.3C8.053,31.667 6.736,29.75 5.036,27.55C3.336,25.35 1.953,23.25 0.886,21.25C-0.147,19.25 -0.664,16.833 -0.664,14C-0.664,10.1 0.686,6.8 3.386,4.1C6.119,1.367 9.436,0 13.336,0C17.236,0 20.536,1.367 23.236,4.1C25.969,6.8 27.336,10.1 27.336,14C27.336,17.033 26.753,19.567 25.586,21.6C24.453,23.6 23.136,25.583 21.636,27.55C19.836,29.95 18.469,31.95 17.536,33.55C16.636,35.117 15.886,36.783 15.286,38.55C15.119,39.017 14.853,39.383 14.486,39.65C14.153,39.883 13.769,40 13.336,40ZM13.336,19C14.736,19 15.919,18.517 16.886,17.55C17.853,16.583 18.336,15.4 18.336,14C18.336,12.6 17.853,11.417 16.886,10.45C15.919,9.483 14.736,9 13.336,9C11.936,9 10.753,9.483 9.786,10.45C8.819,11.417 8.336,12.6 8.336,14C8.336,15.4 8.819,16.583 9.786,17.55C10.753,18.517 11.936,19 13.336,19Z" fill="#49454F"/>
</svg>
