<svg width="578" height="116" viewBox="0 0 578 116" fill="none" xmlns="http://www.w3.org/2000/svg" xmlns:xlink="http://www.w3.org/1999/xlink">
<path d="M0,30C0,13.431 13.431,0 30,0L548,0C564.568,0 578,13.431 578,30L578,86C578,102.569 564.568,116 548,116L30,116C13.431,116 0,102.569 0,86L0,30Z" fill="#EFEFEF"/>
<path d="M0,34.94C0,15.643 22.386,0 50,0L528,0C555.614,0 578,15.643 578,34.94L578,81.06C578,100.357 555.614,116 528,116L50,116C22.386,116 0,100.357 0,81.06L0,34.94Z" fill="#EFEFEF"/>
</svg>
