<svg width="588" height="198" viewBox="0 0 588 198" fill="none" xmlns="http://www.w3.org/2000/svg" xmlns:xlink="http://www.w3.org/1999/xlink">
<path d="M0,50C0,22.386 22.386,0 50,0L538,0C565.614,0 588,22.386 588,50L588,148C588,175.614 565.614,198 538,198L50,198C22.386,198 0,175.614 0,148L0,50Z" fill="#ED6969"/>
<path d="M0,50C0,22.386 22.386,0 50,0L538,0C565.614,0 588,22.386 588,50L588,148C588,175.614 565.614,198 538,198L50,198C22.386,198 0,175.614 0,148L0,50Z" fill="url(#pattern_1_33_3733)"/>
<path d="M0,50C0,22.386 22.386,0 50,0L538,0C565.614,0 588,22.386 588,50L588,148C588,175.614 565.614,198 538,198L50,198C22.386,198 0,175.614 0,148L0,50Z" stroke="#FFFFFF" stroke-width="4" stroke-miterlimit="3.999327"/>
<path d="M0,50C0,22.386 22.386,0 50,0L538,0C565.614,0 588,22.386 588,50L588,148C588,175.614 565.614,198 538,198L50,198C22.386,198 0,175.614 0,148L0,50Z" fill="#ED6969"/>
<path d="M0,50C0,22.386 22.386,0 50,0L538,0C565.614,0 588,22.386 588,50L588,148C588,175.614 565.614,198 538,198L50,198C22.386,198 0,175.614 0,148L0,50Z" fill="url(#pattern_1_33_3733)"/>
<path d="M0,50C0,22.386 22.386,0 50,0L538,0C565.614,0 588,22.386 588,50L588,148C588,175.614 565.614,198 538,198L50,198C22.386,198 0,175.614 0,148L0,50Z" stroke="#FFFFFF" stroke-width="4" stroke-miterlimit="3.999327"/>
</svg>
